<svg xmlns="http://www.w3.org/2000/svg" viewBox="0 0 1200 675" role="img" aria-label="OpenClaw AI logo">
  <defs>
    <linearGradient id="bg" x1="0" y1="0" x2="1" y2="1">
      <stop offset="0%" stop-color="#071426"/>
      <stop offset="55%" stop-color="#0f2744"/>
      <stop offset="100%" stop-color="#0b1628"/>
    </linearGradient>
    <linearGradient id="claw" x1="0" y1="0" x2="1" y2="1">
      <stop offset="0%" stop-color="#ff7350"/>
      <stop offset="100%" stop-color="#ff3f3f"/>
    </linearGradient>
    <linearGradient id="shell" x1="0" y1="0" x2="1" y2="1">
      <stop offset="0%" stop-color="#ffd6bf"/>
      <stop offset="100%" stop-color="#ffb28f"/>
    </linearGradient>
    <filter id="glow">
      <feGaussianBlur stdDeviation="12" result="blur"/>
      <feMerge>
        <feMergeNode in="blur"/>
        <feMergeNode in="SourceGraphic"/>
      </feMerge>
    </filter>
  </defs>
  <rect width="1200" height="675" fill="url(#bg)"/>
  <circle cx="940" cy="130" r="140" fill="#1f3f72" opacity="0.35"/>
  <circle cx="220" cy="560" r="180" fill="#1a325a" opacity="0.30"/>
  <g transform="translate(220 120)">
    <ellipse cx="370" cy="270" rx="190" ry="145" fill="url(#shell)"/>
    <circle cx="300" cy="220" r="20" fill="#111"/>
    <circle cx="440" cy="220" r="20" fill="#111"/>
    <circle cx="295" cy="215" r="5" fill="#fff"/>
    <circle cx="435" cy="215" r="5" fill="#fff"/>
    <path d="M350 250 q20 22 40 0" stroke="#8a2d23" stroke-width="8" fill="none" stroke-linecap="round"/>
    <path d="M175 255 q-85 -100 -20 -165 q55 -55 125 0 q45 40 -10 110 z" fill="url(#claw)" filter="url(#glow)"/>
    <path d="M560 255 q85 -100 20 -165 q-55 -55 -125 0 q-45 40 10 110 z" fill="url(#claw)" filter="url(#glow)"/>
    <rect x="252" y="355" width="26" height="105" rx="12" fill="#ff8f69"/>
    <rect x="312" y="365" width="26" height="105" rx="12" fill="#ff8f69"/>
    <rect x="402" y="365" width="26" height="105" rx="12" fill="#ff8f69"/>
    <rect x="462" y="355" width="26" height="105" rx="12" fill="#ff8f69"/>
  </g>
  <text x="600" y="560" text-anchor="middle" fill="#ffffff" font-size="84" font-family="Segoe UI, Arial, sans-serif" font-weight="700">OPENCLAW AI</text>
  <text x="600" y="610" text-anchor="middle" fill="#9fb4d1" font-size="30" font-family="Segoe UI, Arial, sans-serif">AI-Native Web3 Utility Token</text>
</svg>
